# Blender v2.80 (sub 74) OBJ File: 'Submarine.blend'
# www.blender.org
mtllib Submarine.mtl
o Cube
v 2.000000 0.400000 -0.500000
v 2.000000 -0.400000 -0.500000
v 2.000000 0.400000 0.500000
v 2.000000 -0.400000 0.500000
v -2.000000 0.400000 -0.500000
v -2.000000 -0.400000 -0.500000
v -2.000000 0.400000 0.500000
v -2.000000 -0.400000 0.500000
v -2.000000 -0.400000 0.000000
v 0.000000 -0.400000 -1.000000
v 2.000000 0.000000 -0.500000
v -2.000000 0.000000 0.500000
v 2.000000 0.000000 0.500000
v -2.000000 0.000000 -0.500000
v 0.000000 0.400000 1.000000
v 2.000000 0.400000 0.000000
v 0.000000 -0.400000 1.000000
v -2.000000 0.400000 0.000000
v 0.000000 0.400000 -1.000000
v 2.000000 -0.400000 0.000000
v 0.000000 0.000000 -1.000000
v 2.000000 0.000000 0.000000
v 0.000000 -0.400000 0.000000
v -2.000000 0.000000 0.000000
v 0.000000 0.000000 1.000000
v 0.000000 0.400000 0.000000
v -2.000000 -0.400000 0.500000
v -1.000000 -0.400000 -1.000000
v 2.000000 -0.200000 -0.500000
v -2.000000 0.200000 0.500000
v 2.000000 -0.200000 0.500000
v -2.000000 -0.200000 -0.500000
v -1.000000 0.400000 1.000000
v 2.000000 0.400000 0.500000
v 1.000000 -0.400000 1.000000
v -2.000000 0.400000 -0.500000
v 1.000000 0.400000 -1.000000
v 2.000000 -0.400000 -0.500000
v -2.000000 -0.400000 -0.500000
v 1.000000 -0.400000 -1.000000
v 2.000000 0.200000 -0.500000
v -2.000000 -0.200000 0.500000
v 2.000000 0.200000 0.500000
v -2.000000 0.200000 -0.500000
v 1.000000 0.400000 1.000000
v 2.000000 0.400000 -0.500000
v -1.000000 -0.400000 1.000000
v -2.000000 0.400000 0.500000
v -1.000000 0.400000 -1.000000
v 2.000000 -0.400000 0.500000
v 1.000000 0.000000 -1.000000
v -1.000000 0.000000 -1.000000
v 0.000000 -0.200000 -1.000000
v 0.000000 0.200000 -1.000000
v 2.000000 0.000000 0.500000
v 2.000000 0.000000 -0.500000
v 2.000000 -0.200000 0.000000
v 2.000000 0.200000 0.000000
v 0.000000 -0.400000 0.500000
v 0.000000 -0.400000 -0.500000
v -1.000000 -0.400000 0.000000
v 1.000000 -0.400000 0.000000
v -2.000000 0.000000 -0.500000
v -2.000000 0.000000 0.500000
v -2.000000 -0.200000 0.000000
v -2.000000 0.200000 0.000000
v -1.000000 0.000000 1.000000
v 1.000000 0.000000 1.000000
v 0.000000 -0.200000 1.000000
v 0.000000 0.200000 1.000000
v 0.000000 0.400000 0.500000
v 0.000000 0.400000 -0.500000
v 1.000000 0.400000 0.000000
v -1.000000 0.400000 0.000000
v -1.000000 0.400000 -0.500000
v 1.000000 0.400000 -0.500000
v 1.000000 0.400000 0.500000
v 1.000000 0.200000 1.000000
v 1.000000 -0.200000 1.000000
v -1.000000 -0.200000 1.000000
v -2.000000 0.200000 0.500000
v -2.000000 -0.200000 0.500000
v -2.000000 -0.200000 -0.500000
v 1.000000 -0.400000 -0.500000
v -1.000000 -0.400000 -0.500000
v -1.000000 -0.400000 0.500000
v 2.000000 0.200000 -0.500000
v 2.000000 -0.200000 -0.500000
v 2.000000 -0.200000 0.500000
v -1.000000 0.200000 -1.000000
v -1.000000 -0.200000 -1.000000
v 1.000000 -0.200000 -1.000000
v 1.000000 0.200000 -1.000000
v 2.000000 0.200000 0.500000
v 1.000000 -0.400000 0.500000
v -2.000000 0.200000 -0.500000
v -1.000000 0.200000 1.000000
v -1.000000 0.400000 0.500000
vt 0.562500 0.187500
vt 0.625000 0.187500
vt 0.625000 0.250000
vt 0.562500 0.250000
vt 0.562500 0.437500
vt 0.625000 0.437500
vt 0.625000 0.500000
vt 0.562500 0.500000
vt 0.562500 0.687500
vt 0.625000 0.687500
vt 0.625000 0.750000
vt 0.562500 0.750000
vt 0.562500 0.937500
vt 0.625000 0.937500
vt 0.625000 1.000000
vt 0.562500 1.000000
vt 0.312500 0.687500
vt 0.375000 0.687500
vt 0.375000 0.750000
vt 0.312500 0.750000
vt 0.812500 0.687500
vt 0.875000 0.687500
vt 0.875000 0.750000
vt 0.812500 0.750000
vt 0.687500 0.687500
vt 0.750000 0.687500
vt 0.750000 0.750000
vt 0.687500 0.750000
vt 0.687500 0.562500
vt 0.750000 0.562500
vt 0.750000 0.625000
vt 0.687500 0.625000
vt 0.812500 0.562500
vt 0.875000 0.562500
vt 0.875000 0.625000
vt 0.812500 0.625000
vt 0.187500 0.687500
vt 0.250000 0.687500
vt 0.250000 0.750000
vt 0.187500 0.750000
vt 0.187500 0.562500
vt 0.250000 0.562500
vt 0.250000 0.625000
vt 0.187500 0.625000
vt 0.312500 0.562500
vt 0.375000 0.562500
vt 0.375000 0.625000
vt 0.312500 0.625000
vt 0.437500 0.937500
vt 0.500000 0.937500
vt 0.500000 1.000000
vt 0.437500 1.000000
vt 0.437500 0.812500
vt 0.500000 0.812500
vt 0.500000 0.875000
vt 0.437500 0.875000
vt 0.562500 0.812500
vt 0.625000 0.812500
vt 0.625000 0.875000
vt 0.562500 0.875000
vt 0.437500 0.687500
vt 0.500000 0.687500
vt 0.500000 0.750000
vt 0.437500 0.750000
vt 0.437500 0.562500
vt 0.500000 0.562500
vt 0.500000 0.625000
vt 0.437500 0.625000
vt 0.562500 0.562500
vt 0.625000 0.562500
vt 0.625000 0.625000
vt 0.562500 0.625000
vt 0.437500 0.437500
vt 0.500000 0.437500
vt 0.500000 0.500000
vt 0.437500 0.500000
vt 0.437500 0.312500
vt 0.500000 0.312500
vt 0.500000 0.375000
vt 0.437500 0.375000
vt 0.562500 0.312500
vt 0.625000 0.312500
vt 0.625000 0.375000
vt 0.562500 0.375000
vt 0.437500 0.187500
vt 0.500000 0.187500
vt 0.500000 0.250000
vt 0.437500 0.250000
vt 0.437500 0.062500
vt 0.500000 0.062500
vt 0.500000 0.125000
vt 0.437500 0.125000
vt 0.562500 0.062500
vt 0.625000 0.062500
vt 0.625000 0.125000
vt 0.562500 0.125000
vt 0.500000 0.000000
vt 0.562500 0.000000
vt 0.625000 0.000000
vt 0.375000 0.062500
vt 0.375000 0.125000
vt 0.375000 0.000000
vt 0.437500 0.000000
vt 0.375000 0.187500
vt 0.375000 0.250000
vt 0.500000 0.250000
vt 0.562500 0.250000
vt 0.625000 0.250000
vt 0.375000 0.312500
vt 0.375000 0.375000
vt 0.375000 0.250000
vt 0.437500 0.250000
vt 0.375000 0.437500
vt 0.375000 0.500000
vt 0.375000 0.562500
vt 0.375000 0.625000
vt 0.375000 0.687500
vt 0.375000 0.750000
vt 0.500000 0.750000
vt 0.562500 0.750000
vt 0.625000 0.750000
vt 0.375000 0.812500
vt 0.375000 0.875000
vt 0.437500 0.750000
vt 0.375000 0.937500
vt 0.375000 1.000000
vt 0.250000 0.500000
vt 0.312500 0.500000
vt 0.375000 0.500000
vt 0.125000 0.562500
vt 0.125000 0.625000
vt 0.125000 0.500000
vt 0.187500 0.500000
vt 0.125000 0.687500
vt 0.125000 0.750000
vt 0.750000 0.500000
vt 0.812500 0.500000
vt 0.875000 0.500000
vt 0.625000 0.562500
vt 0.625000 0.625000
vt 0.625000 0.500000
vt 0.687500 0.500000
vt 0.625000 0.687500
vn 0.0000 1.0000 0.0000
vn -0.4472 0.0000 0.8944
vn 0.0000 0.0000 1.0000
vn 0.0000 -1.0000 0.0000
vn 0.4472 0.0000 -0.8944
vn 0.0000 0.0000 -1.0000
vn 1.0000 0.0000 0.0000
vn -1.0000 0.0000 0.0000
vn 0.4472 0.0000 0.8944
vn -0.4472 0.0000 -0.8944
g Cube_Cube_Material
usemtl Material
s off
f 98/1/1 48/2/1 7/3/1 33/4/1
f 97/5/2 33/6/2 7/7/2 30/8/2
f 96/9/3 36/10/3 5/11/3 44/12/3
f 95/13/4 50/14/4 4/15/4 35/16/4
f 94/17/3 34/18/3 3/19/3 43/20/3
f 93/21/5 37/22/5 1/23/5 41/24/5
f 92/25/5 51/26/5 11/27/5 29/28/5
f 91/29/6 52/30/6 21/31/6 53/32/6
f 90/33/6 49/34/6 19/35/6 54/36/6
f 89/37/3 55/38/3 13/39/3 31/40/3
f 88/41/7 56/42/7 22/43/7 57/44/7
f 87/45/7 46/46/7 16/47/7 58/48/7
f 86/49/4 59/50/4 17/51/4 47/52/4
f 85/53/4 60/54/4 23/55/4 61/56/4
f 84/57/4 38/58/4 20/59/4 62/60/4
f 83/61/3 63/62/3 14/63/3 32/64/3
f 82/65/8 64/66/8 24/67/8 65/68/8
f 81/69/8 48/70/8 18/71/8 66/72/8
f 80/73/2 67/74/2 12/75/2 42/76/2
f 79/77/3 68/78/3 25/79/3 69/80/3
f 78/81/3 45/82/3 15/83/3 70/84/3
f 77/85/1 71/86/1 15/87/1 45/88/1
f 76/89/1 72/90/1 26/91/1 73/92/1
f 75/93/1 36/94/1 18/95/1 74/96/1
f 72/90/1 75/93/1 74/96/1 26/91/1
f 19/97/1 49/98/1 75/93/1 72/90/1
f 49/98/1 5/99/1 36/94/1 75/93/1
f 46/100/1 76/89/1 73/92/1 16/101/1
f 1/102/1 37/103/1 76/89/1 46/100/1
f 37/103/1 19/97/1 72/90/1 76/89/1
f 34/104/1 77/85/1 45/88/1 3/105/1
f 16/101/1 73/92/1 77/85/1 34/104/1
f 73/92/1 26/91/1 71/86/1 77/85/1
f 68/78/3 78/81/3 70/84/3 25/79/3
f 13/106/9 43/107/9 78/81/9 68/78/9
f 43/107/9 3/108/9 45/82/9 78/81/9
f 35/109/3 79/77/3 69/80/3 17/110/3
f 4/111/9 31/112/9 79/77/9 35/109/9
f 31/112/9 13/106/9 68/78/9 79/77/9
f 47/113/2 80/73/2 42/76/2 8/114/2
f 17/110/3 69/80/3 80/73/3 47/113/3
f 69/80/3 25/79/3 67/74/3 80/73/3
f 64/66/8 81/69/8 66/72/8 24/67/8
f 12/75/3 30/8/3 81/69/3 64/66/3
f 30/8/3 7/7/3 48/70/3 81/69/3
f 27/115/8 82/65/8 65/68/8 9/116/8
f 8/114/3 42/76/3 82/65/3 27/115/3
f 42/76/3 12/75/3 64/66/3 82/65/3
f 39/117/3 83/61/3 32/64/3 6/118/3
f 9/116/8 65/68/8 83/61/8 39/117/8
f 65/68/8 24/67/8 63/62/8 83/61/8
f 60/54/4 84/57/4 62/60/4 23/55/4
f 10/119/4 40/120/4 84/57/4 60/54/4
f 40/120/4 2/121/4 38/58/4 84/57/4
f 39/122/4 85/53/4 61/56/4 9/123/4
f 6/118/4 28/124/4 85/53/4 39/122/4
f 28/124/4 10/119/4 60/54/4 85/53/4
f 27/125/4 86/49/4 47/52/4 8/126/4
f 9/123/4 61/56/4 86/49/4 27/125/4
f 61/56/4 23/55/4 59/50/4 86/49/4
f 56/42/7 87/45/7 58/48/7 22/43/7
f 11/127/3 41/128/3 87/45/3 56/42/3
f 41/128/3 1/129/3 46/46/3 87/45/3
f 38/130/7 88/41/7 57/44/7 20/131/7
f 2/132/3 29/133/3 88/41/3 38/130/3
f 29/133/3 11/127/3 56/42/3 88/41/3
f 50/134/3 89/37/3 31/40/3 4/135/3
f 20/131/7 57/44/7 89/37/7 50/134/7
f 57/44/7 22/43/7 55/38/7 89/37/7
f 52/30/6 90/33/6 54/36/6 21/31/6
f 14/136/10 44/137/10 90/33/10 52/30/10
f 44/137/10 5/138/10 49/34/10 90/33/10
f 28/139/6 91/29/6 53/32/6 10/140/6
f 6/141/10 32/142/10 91/29/10 28/139/10
f 32/142/10 14/136/10 52/30/10 91/29/10
f 40/143/5 92/25/5 29/28/5 2/121/5
f 10/140/6 53/32/6 92/25/6 40/143/6
f 53/32/6 21/31/6 51/26/6 92/25/6
f 51/26/5 93/21/5 41/24/5 11/27/5
f 21/31/6 54/36/6 93/21/6 51/26/6
f 54/36/6 19/35/6 37/22/6 93/21/6
f 55/38/3 94/17/3 43/20/3 13/39/3
f 22/43/7 58/48/7 94/17/7 55/38/7
f 58/48/7 16/47/7 34/18/7 94/17/7
f 59/50/4 95/13/4 35/16/4 17/51/4
f 23/55/4 62/60/4 95/13/4 59/50/4
f 62/60/4 20/59/4 50/14/4 95/13/4
f 63/62/3 96/9/3 44/12/3 14/63/3
f 24/67/8 66/72/8 96/9/8 63/62/8
f 66/72/8 18/71/8 36/10/8 96/9/8
f 67/74/2 97/5/2 30/8/2 12/75/2
f 25/79/3 70/84/3 97/5/3 67/74/3
f 70/84/3 15/83/3 33/6/3 97/5/3
f 71/86/1 98/1/1 33/4/1 15/87/1
f 26/91/1 74/96/1 98/1/1 71/86/1
f 74/96/1 18/95/1 48/2/1 98/1/1
o Cube.001
v -1.050000 0.400000 0.250000
v -1.050000 0.500000 0.250000
v -1.050000 0.400000 -0.250000
v -1.050000 0.500000 -0.250000
v -0.549601 0.400000 0.250530
v -0.550000 0.500000 0.250000
v -0.550000 0.400000 -0.250000
v -0.550000 0.500000 -0.250000
v -1.100000 0.400000 0.000000
v -1.050000 0.450000 0.250000
v -1.100000 0.500000 0.000000
v -1.050000 0.450000 -0.250000
v -0.800000 0.400000 -0.300000
v -0.800000 0.500000 -0.300000
v -0.550000 0.450000 -0.250000
v -0.500000 0.400000 0.000000
v -0.500000 0.500000 0.000000
v -0.549601 0.450000 0.250530
v -0.800000 0.400000 0.300000
v -0.800000 0.500000 0.300000
v -0.800000 0.500000 0.000000
v -0.800000 0.400000 0.000000
v -0.800000 0.450000 0.300000
v -0.500000 0.450000 0.000000
v -0.800000 0.450000 -0.300000
v -1.100000 0.450000 0.000000
vt 0.500000 0.125000
vt 0.625000 0.125000
vt 0.625000 0.250000
vt 0.500000 0.250000
vt 0.500000 0.375000
vt 0.625000 0.375000
vt 0.625000 0.500000
vt 0.500000 0.500000
vt 0.500000 0.625000
vt 0.625000 0.625000
vt 0.625000 0.750000
vt 0.500000 0.750000
vt 0.500000 0.875000
vt 0.625000 0.875000
vt 0.625000 1.000000
vt 0.500000 1.000000
vt 0.250000 0.625000
vt 0.375000 0.625000
vt 0.375000 0.750000
vt 0.250000 0.750000
vt 0.750000 0.625000
vt 0.875000 0.625000
vt 0.875000 0.750000
vt 0.750000 0.750000
vt 0.750000 0.500000
vt 0.875000 0.500000
vt 0.125000 0.625000
vt 0.125000 0.750000
vt 0.125000 0.500000
vt 0.250000 0.500000
vt 0.375000 0.500000
vt 0.375000 0.875000
vt 0.375000 1.000000
vt 0.375000 0.375000
vt 0.375000 0.250000
vt 0.375000 0.125000
vt 0.375000 0.000000
vt 0.500000 0.000000
vt 0.625000 0.000000
vn -0.9806 0.0000 -0.1961
vn 0.1961 0.0000 -0.9806
vn 0.9808 0.0049 0.1952
vn -0.1961 0.0000 0.9806
vn 0.0000 -1.0000 0.0000
vn 0.0000 1.0000 0.0000
vn 0.1938 0.0000 0.9810
vn 0.1950 0.0060 0.9808
vn 0.9810 0.0000 0.1942
vn 0.9806 0.0000 -0.1961
vn -0.1961 0.0000 -0.9806
vn -0.9806 0.0000 0.1961
g Cube.001_Cube.001_Material.003
usemtl Material.003
s off
f 124/144/11 109/145/11 102/146/11 110/147/11
f 123/148/12 112/149/12 106/150/12 113/151/12
f 122/152/13 115/153/13 104/154/13 116/155/13
f 121/156/14 118/157/14 100/158/14 108/159/14
f 120/160/15 114/161/15 103/162/15 117/163/15
f 119/164/16 109/165/16 100/166/16 118/167/16
f 115/153/16 119/164/16 118/167/16 104/154/16
f 106/150/16 112/168/16 119/164/16 115/153/16
f 112/168/16 102/169/16 109/165/16 119/164/16
f 107/170/15 120/160/15 117/163/15 99/171/15
f 101/172/15 111/173/15 120/160/15 107/170/15
f 111/173/15 105/174/15 114/161/15 120/160/15
f 117/175/14 121/156/14 108/159/14 99/176/14
f 103/162/17 116/155/17 121/156/17 117/175/17
f 116/155/18 104/154/18 118/157/18 121/156/18
f 114/161/19 122/152/19 116/155/19 103/162/19
f 105/174/20 113/151/20 122/152/20 114/161/20
f 113/151/20 106/150/20 115/153/20 122/152/20
f 111/177/12 123/148/12 113/151/12 105/174/12
f 101/178/21 110/147/21 123/148/21 111/177/21
f 110/147/21 102/146/21 112/149/21 123/148/21
f 107/179/11 124/144/11 110/147/11 101/178/11
f 99/180/22 108/181/22 124/144/22 107/179/22
f 108/181/22 100/182/22 109/145/22 124/144/22
o Cube.002
v -0.900000 0.400000 0.100000
v -0.900000 1.000000 0.100000
v -0.900000 0.400000 -0.100000
v -0.900000 1.000000 -0.100000
v -0.700000 0.400000 0.100000
v -0.700000 1.000000 0.100000
v -0.700000 0.400000 -0.100000
v -0.700000 1.000000 -0.100000
vt 0.375000 0.000000
vt 0.625000 0.000000
vt 0.625000 0.250000
vt 0.375000 0.250000
vt 0.625000 0.500000
vt 0.375000 0.500000
vt 0.625000 0.750000
vt 0.375000 0.750000
vt 0.625000 1.000000
vt 0.375000 1.000000
vt 0.125000 0.500000
vt 0.125000 0.750000
vt 0.875000 0.500000
vt 0.875000 0.750000
vn -1.0000 0.0000 0.0000
vn 0.0000 0.0000 -1.0000
vn 1.0000 0.0000 0.0000
vn 0.0000 0.0000 1.0000
vn 0.0000 -1.0000 0.0000
vn 0.0000 1.0000 0.0000
g Cube.002_Cube.002_Material.001
usemtl Material.001
s off
f 125/183/23 126/184/23 128/185/23 127/186/23
f 127/186/24 128/185/24 132/187/24 131/188/24
f 131/188/25 132/187/25 130/189/25 129/190/25
f 129/190/26 130/189/26 126/191/26 125/192/26
f 127/193/27 131/188/27 129/190/27 125/194/27
f 132/187/28 128/195/28 126/196/28 130/189/28
o Cube.003
v -0.900000 0.800000 0.100000
v -1.260000 0.800000 0.100000
v -0.900000 0.800000 -0.100000
v -1.260000 0.800000 -0.100000
v -0.900000 1.000000 0.100000
v -1.260000 1.000000 0.100000
v -0.900000 1.000000 -0.100000
v -1.260000 1.000000 -0.100000
vt 0.375000 0.000000
vt 0.625000 0.000000
vt 0.625000 0.250000
vt 0.375000 0.250000
vt 0.625000 0.500000
vt 0.375000 0.500000
vt 0.625000 0.750000
vt 0.375000 0.750000
vt 0.625000 1.000000
vt 0.375000 1.000000
vt 0.125000 0.500000
vt 0.125000 0.750000
vt 0.875000 0.500000
vt 0.875000 0.750000
vn 0.0000 -1.0000 0.0000
vn 0.0000 0.0000 -1.0000
vn 0.0000 1.0000 0.0000
vn 0.0000 0.0000 1.0000
vn 1.0000 0.0000 0.0000
vn -1.0000 0.0000 0.0000
g Cube.003_Cube.003_Material.002
usemtl Material.002
s off
f 133/197/29 134/198/29 136/199/29 135/200/29
f 135/200/30 136/199/30 140/201/30 139/202/30
f 139/202/31 140/201/31 138/203/31 137/204/31
f 137/204/32 138/203/32 134/205/32 133/206/32
f 135/207/33 139/202/33 137/204/33 133/208/33
f 140/201/34 136/209/34 134/210/34 138/203/34
